<?xml version="1.0" encoding="UTF-8"?>
<!DOCTYPE svg PUBLIC "-//W3C//DTD SVG 1.1//EN" "http://www.w3.org/Graphics/SVG/1.1/DTD/svg11.dtd">
<svg xmlns="http://www.w3.org/2000/svg" version="1.1" width="25px" height="25px" viewBox="8 0 20 20">

    <path d="M 16 12.13 C 14.83 12.13 13.87 11.17 13.87 10 C 13.87 8.83 14.83 7.87 16 7.87 C 17.17 7.87 18.13 8.83 18.13 10 C 18.13 11.17 17.17 12.13 16 12.13 Z M 16 7.33 C 14.53 7.33 13.33 8.53 13.33 10 C 13.33 11.47 14.53 12.67 16 12.67 C 17.47 12.67 18.67 11.47 18.67 10 C 18.67 8.53 17.47 7.33 16 7.33 Z M 21.45 11.02 L 20.49 11.02 C 20.37 11.02 20.26 11.1 20.23 11.22 C 20.13 11.6 19.97 11.88 19.78 12.2 C 19.72 12.3 19.74 12.44 19.82 12.53 L 20.5 13.2 L 19.19 14.5 L 18.51 13.83 C 18.43 13.74 18.29 13.72 18.18 13.78 L 18.12 13.82 C 17.8 14 17.57 14.14 17.22 14.23 C 17.1 14.26 17.02 14.37 17.02 14.49 L 17.02 15.45 L 14.98 15.45 L 14.98 14.49 C 14.98 14.37 14.9 14.26 14.78 14.23 C 14.4 14.13 14.13 13.98 13.79 13.78 C 13.68 13.72 13.55 13.74 13.46 13.82 L 12.79 14.5 L 11.49 13.2 L 12.16 12.51 C 12.25 12.43 12.27 12.29 12.21 12.19 L 12.18 12.14 C 11.99 11.81 11.85 11.58 11.76 11.22 C 11.73 11.1 11.62 11.02 11.5 11.02 L 10.55 11.02 L 10.55 8.98 L 11.51 8.98 C 11.63 8.98 11.74 8.9 11.77 8.78 C 11.87 8.39 12.03 8.11 12.22 7.78 C 12.28 7.68 12.26 7.54 12.18 7.45 L 11.5 6.78 L 12.8 5.47 L 13.48 6.15 C 13.57 6.24 13.71 6.26 13.81 6.2 L 13.86 6.17 C 14.19 5.98 14.42 5.84 14.78 5.75 C 14.9 5.72 14.98 5.61 14.98 5.48 L 14.98 4.55 L 17.02 4.55 L 17.02 5.5 C 17.02 5.63 17.1 5.73 17.22 5.77 C 17.57 5.86 17.8 6 18.12 6.18 L 18.17 6.21 C 18.28 6.28 18.41 6.26 18.5 6.17 L 19.16 5.5 L 20.45 6.8 L 19.78 7.47 C 19.69 7.56 19.67 7.7 19.74 7.8 C 19.93 8.13 20.08 8.4 20.18 8.78 C 20.21 8.9 20.32 8.98 20.44 8.98 L 21.45 8.98 Z M 21.49 8.43 L 20.64 8.43 C 20.55 8.16 20.44 7.94 20.31 7.71 L 20.86 7.15 C 21.05 6.96 21.05 6.63 20.86 6.44 L 19.53 5.09 C 19.33 4.89 18.99 4.89 18.8 5.09 L 18.26 5.63 C 18.04 5.51 17.83 5.39 17.57 5.3 L 17.57 4.51 C 17.57 4.23 17.34 4 17.05 4 L 14.95 4 C 14.66 4 14.43 4.23 14.43 4.51 L 14.43 5.28 C 14.17 5.37 13.95 5.49 13.72 5.62 L 13.16 5.06 C 12.97 4.87 12.64 4.87 12.44 5.06 L 11.09 6.41 C 10.99 6.51 10.94 6.64 10.94 6.78 C 10.94 6.91 10.99 7.04 11.09 7.14 L 11.64 7.69 C 11.51 7.92 11.39 8.16 11.3 8.43 L 10.51 8.43 C 10.23 8.43 10 8.66 10 8.95 L 10 11.05 C 10 11.34 10.23 11.57 10.51 11.57 L 11.29 11.57 C 11.38 11.83 11.5 12.05 11.63 12.28 L 11.08 12.84 C 10.88 13.03 10.88 13.36 11.08 13.56 L 12.42 14.91 C 12.52 15.01 12.65 15.06 12.79 15.06 L 12.79 15.06 C 12.92 15.06 13.05 15.01 13.15 14.91 L 13.7 14.36 C 13.94 14.49 14.16 14.61 14.43 14.7 L 14.43 15.49 C 14.43 15.77 14.66 16 14.95 16 L 17.05 16 C 17.34 16 17.57 15.77 17.57 15.49 L 17.57 14.7 C 17.83 14.61 18.05 14.49 18.28 14.36 L 18.83 14.91 C 19.03 15.11 19.36 15.11 19.55 14.91 L 20.91 13.57 C 21.01 13.47 21.06 13.34 21.06 13.2 C 21.06 13.07 21.01 12.94 20.91 12.84 L 20.36 12.29 C 20.48 12.07 20.6 11.84 20.7 11.57 L 21.49 11.57 C 21.77 11.57 22 11.34 22 11.05 L 22 8.95 C 22 8.66 21.77 8.43 21.49 8.43 Z" fill="#FFFFFF"/>
    <path d="M 36 10 Q 36 10 24 10"  fill="#FFFFFF" stroke="#FFFFFF" />
    <path d="M 16 2 Q 24 2 24 10 Q 24 18 16 18" fill="none" stroke="#FFFFFF" />
    
    <path d="M 0 10 L 10 10" fill="#FFFFFF" stroke="#FFFFFF" />
</svg>